<svg width="1440" height="378" viewBox="0 0 1440 378" fill="none" xmlns="http://www.w3.org/2000/svg">
<path d="M-12.77 285.523L-6.50078 278.784C-0.331121 271.534 12.5078 258.82 24.5917 265.225C36.8773 271.63 49.7122 299.705 61.9183 258.565C74.3242 218.19 86.5045 108.6 99.6993 75.11C111.988 41.1079 123.883 81.9278 136.956 95.6004C149.023 108.76 161.156 96.0449 174.196 122.846C186.126 149.645 198.151 218.508 211.155 258.948C222.948 300.15 235.217 312.929 247.422 272.553C260.434 231.415 272.979 137.122 285.185 95.9813C298.095 55.6076 310.465 68.386 322.459 109.589C335.061 150.028 347.388 218.892 359.454 232.052C372.024 245.723 384.733 204.966 396.851 198.242C409.474 191.008 422.006 219.083 434.108 218.732C446.61 219.147 459.388 191.137 471.452 205.189C483.819 219.242 496.487 272.811 508.534 293.619C520.785 313.663 533.724 300.949 545.878 280.203C558.231 260.223 570.202 232.211 583.415 191.838C595.722 150.698 607.859 97.1929 621.003 83.2054C633.14 69.2152 645.168 97.2889 658.243 110.452C670.207 124.121 682.408 124.153 695.465 144.581C707.311 165.006 719.508 205.827 731.626 199.102C744.551 191.87 756.991 138.366 769.127 124.375C781.97 110.387 794.3 138.461 806.332 165.26C818.968 192.061 831.4 220.135 843.449 240.179C856 260.988 868.572 273.767 880.636 287.819C893.204 301.873 905.776 314.652 917.823 335.46C930.275 355.504 942.908 383.579 955.027 376.345C967.447 369.621 980.358 328.865 992.529 301.746C1004.9 274.117 1017.84 261.404 1029.91 274.564C1042.17 288.235 1053.97 329.054 1067.16 295.054C1079.45 261.562 1091.73 151.973 1104.93 118.483C1117.12 84.4804 1129.11 125.301 1142.22 125.334C1154.22 125.365 1166.53 84.6074 1179.58 105.036C1191.43 125.461 1203.52 207.07 1215.64 200.346C1228.56 193.114 1241.11 98.8204 1253.26 78.0746C1266.12 58.0954 1278.38 111.663 1290.34 166.504C1302.91 221.347 1315.27 274.915 1327.3 302.606C1339.84 329.789 1352.44 329.821 1364.63 295.819C1377.32 262.328 1390.1 193.529 1402.31 153.153C1414.92 112.014 1427.65 99.2998 1433.72 92.0499L1439.79 85.3097L1440 3.73152L1433.75 3.71546C1427.6 3.69965 1414.79 3.66674 1402.69 3.63564C1390.39 3.60402 1377.48 3.57085 1365.38 3.53975C1353.08 3.50814 1341.18 3.47756 1328.07 3.44387C1315.87 3.41251 1303.87 3.38167 1290.76 3.34798C1278.66 3.31689 1266.56 3.28579 1253.45 3.2521C1241.45 3.22126 1229.25 3.1899 1216.14 3.15622C1204.25 3.12564 1191.94 3.09402 1179.84 3.06292C1166.94 3.02975 1154.63 2.99814 1142.53 2.96704C1129.73 2.93413 1117.33 2.90225 1105.23 2.87115C1092.52 2.8385 1080.02 2.80637 1067.92 2.77527C1055.31 2.74287 1042.71 2.71048 1030.61 2.67938C1018 2.64699 1005.4 2.6146 993.297 2.5835C980.794 2.55136 968.088 2.51871 955.988 2.48761C943.585 2.45574 930.779 2.42283 918.679 2.39173C906.377 2.36011 893.47 2.32694 881.37 2.29584C869.068 2.26423 857.169 2.23365 844.06 2.19996C831.859 2.1686 819.86 2.13776 806.751 2.10408C794.651 2.07298 782.55 2.04188 769.442 2.00819C757.442 1.97735 745.241 1.946 732.132 1.91231C720.234 1.88173 707.932 1.85011 695.832 1.81901C682.925 1.78584 670.623 1.75423 658.522 1.72313C645.716 1.69022 633.313 1.65834 621.213 1.62724C608.508 1.59459 596.004 1.56246 583.904 1.53136C571.299 1.49897 558.695 1.46657 546.595 1.43547C533.99 1.40308 521.386 1.37069 509.285 1.33959C496.782 1.30745 484.076 1.2748 471.976 1.2437C459.573 1.21183 446.767 1.17892 434.667 1.14782C422.365 1.1162 409.458 1.08303 397.357 1.05194C385.055 1.02032 373.157 0.98974 360.048 0.95605C347.847 0.924694 335.848 0.893855 322.739 0.860166C310.639 0.829068 298.538 0.79797 285.43 0.764281C273.43 0.733443 261.229 0.702086 248.12 0.668396C236.222 0.637817 223.92 0.606201 211.819 0.575103C198.912 0.541932 186.61 0.510316 174.51 0.479219C161.704 0.446307 149.301 0.414432 137.201 0.383334C124.496 0.350681 111.992 0.318547 99.8916 0.287449C87.2872 0.255056 74.6827 0.222662 62.5824 0.191564C49.9779 0.159171 37.3734 0.126778 25.2731 0.0956798C12.7694 0.0635455 0.0641322 0.0308929 -5.98602 0.015344L-12.0362 -0.000204875L-12.77 285.523Z" fill="#E4E4E7"/>
</svg>
