<svg width="1440" height="299" viewBox="0 0 1440 299" fill="none" xmlns="http://www.w3.org/2000/svg">
<path d="M1455 31.9963L1448.74 42.6951C1442.57 52.994 1429.74 74.9915 1417.61 111.987C1405.29 148.983 1392.35 202.977 1380.23 202.677C1367.9 202.977 1355.98 148.983 1342.84 143.984C1330.62 138.984 1318.59 180.979 1305.46 218.675C1293.33 255.971 1281.21 287.967 1268.07 293.267C1256.05 298.966 1243.82 276.968 1230.69 277.268C1218.76 276.968 1206.44 298.966 1194.31 271.969C1181.38 244.972 1169.05 170.981 1156.93 165.281C1144.09 159.982 1131.67 223.974 1119.54 239.973C1106.81 255.971 1094.28 223.974 1082.16 186.679C1069.53 148.983 1056.9 106.988 1044.77 95.9891C1032.14 84.9903 1019.51 106.988 1007.39 143.984C994.856 180.979 982.125 234.973 970 266.67C957.572 298.966 944.74 308.965 932.615 287.967C920.288 266.97 907.354 212.976 895.229 197.278C882.902 180.979 870.979 202.977 857.844 175.98C845.618 148.983 833.594 74.9915 820.458 47.9945C808.333 20.9976 796.208 42.9951 783.073 47.9945C771.049 52.994 758.823 42.9951 745.688 58.6933C733.765 74.9915 721.438 116.987 709.312 154.682C696.379 191.978 684.052 223.974 671.927 223.974C659.095 223.974 646.667 191.978 634.542 165.281C621.81 138.984 609.281 116.987 597.156 106.688C584.526 95.9891 571.896 95.9891 559.771 117.287C547.141 138.984 534.51 180.979 522.385 165.281C509.856 148.983 497.125 74.9915 485 47.9945C472.572 20.9976 459.74 42.9951 447.615 58.6933C435.288 74.9915 422.354 84.9903 410.229 79.9909C397.902 74.9915 385.979 52.994 372.844 74.6915C360.618 95.989 348.594 159.982 335.458 181.279C323.333 202.977 311.208 180.979 298.073 186.679C286.049 191.978 273.823 223.974 260.688 245.272C248.765 266.97 236.438 276.968 224.312 234.673C211.379 191.978 199.052 95.9891 186.927 69.2921C174.095 42.9951 161.667 84.9903 149.542 117.287C136.811 148.983 124.281 170.98 112.156 202.677C99.526 234.973 86.8959 276.968 74.7709 277.268C62.1406 276.968 49.5105 234.973 37.3855 197.278C24.8563 159.982 12.125 127.985 6.0625 111.987L0 95.9891V0H6.26465C12.4282 0 25.2605 0 37.3855 0C49.7125 0 62.6459 0 74.7709 0C87.0979 0 99.0209 0 112.156 0C124.382 0 136.406 0 149.542 0C161.667 0 173.792 0 186.927 0C198.951 0 211.177 0 224.312 0C236.235 0 248.562 0 260.688 0C273.621 0 285.948 0 298.073 0C310.905 0 323.333 0 335.458 0C348.19 0 360.719 0 372.844 0C385.474 0 398.104 0 410.229 0C422.859 0 435.49 0 447.615 0C460.144 0 472.875 0 485 0C497.428 0 510.26 0 522.385 0C534.713 0 547.646 0 559.771 0C572.098 0 584.021 0 597.156 0C609.382 0 621.406 0 634.542 0C646.667 0 658.792 0 671.927 0C683.951 0 696.177 0 709.312 0C721.235 0 733.562 0 745.688 0C758.621 0 770.948 0 783.073 0C795.905 0 808.333 0 820.458 0C833.19 0 845.719 0 857.844 0C870.474 0 883.104 0 895.229 0C907.859 0 920.49 0 932.615 0C945.144 0 957.875 0 970 0C982.428 0 995.26 0 1007.39 0C1019.71 0 1032.65 0 1044.77 0C1057.1 0 1069.02 0 1082.16 0C1094.38 0 1106.41 0 1119.54 0C1131.67 0 1143.79 0 1156.93 0C1168.95 0 1181.18 0 1194.31 0C1206.24 0 1218.56 0 1230.69 0C1243.62 0 1255.95 0 1268.07 0C1280.91 0 1293.33 0 1305.46 0C1318.19 0 1330.72 0 1342.84 0C1355.47 0 1368.1 0 1380.23 0C1392.86 0 1405.49 0 1417.61 0C1430.14 0 1442.88 0 1448.94 0H1455V31.9963Z" fill="#09090B"/>
</svg>
